# File created by Blade
# Date/Time:  Tue Jan 27 18:35:12 2015
#---------------------------------------------------------
:version 1.10
:name HOM
:units
  mass 1.0
  length 1.000000
  angle deg
:documentation
     Acclaim Skeleton File
:root
   axis xyz
   order TX TY TZ RX RY RZ
   position 0.000000 0.000000 0.000000
   orientation 0 0 0
:bonedata
   begin
      id 1
      name Spine_dum
      direction 0.000000 1.000000 0.000000
      length 5.195262
      axis 0.0 0.0 0.0 xyz
   end
   begin
      id 2
      name LeftUpLeg_dum
      direction 1.000000 0.000000 0.000000
      length 3.351363
      axis 0.0 0.0 0.0 xyz
   end
   begin
      id 3
      name RightUpLeg_dum
      direction -1.000000 0.000000 0.000000
      length 3.351363
      axis 0.0 0.0 0.0 xyz
   end
   begin
      id 4
      name Spine
      direction 0.000000 1.000000 0.000000
      length 0.000000
      axis 0.0 0.0 0.0 xyz
      dof rx ry rz
   end
   begin
      id 5
      name Spine_dum1
      direction 0.000000 1.000000 0.000000
      length 15.653875
      axis 0.0 0.0 0.0 xyz
   end
   begin
      id 6
      name Spine_dum2
      direction 0.000000 1.000000 0.000000
      length 10.329768
      axis 0.0 0.0 0.0 xyz
   end
   begin
      id 7
      name Spine_dum3
      direction 0.000000 1.000000 0.000000
      length 10.329768
      axis 0.0 0.0 0.0 xyz
   end
   begin
      id 8
      name Head
      direction 0.000000 1.000000 0.000000
      length 4.527550
      axis 0.0 0.0 0.0 xyz
      dof rx ry rz
   end
   begin
      id 9
      name LeftShoulder
      direction 1.000000 0.000000 0.000000
      length 6.996006
      axis 0.0 0.0 -90.0 xyz
      dof rx ry rz
   end
   begin
      id 10
      name LeftArm
      direction 1.000000 0.000000 0.000000
      length 10.209302
      axis 0.0 0.0 -90.0 xyz
      dof rx ry rz
   end
   begin
      id 11
      name LeftForeArm
      direction 1.000000 0.000000 0.000000
      length 8.563163
      axis 0.0 0.0 -90.0 xyz
      dof ry rz rx
   end
   begin
      id 12
      name LeftHand
      direction 0.000000 0.000000 0.000000
      length 0.000000
      axis 0.0 0.0 -90.0 xyz
      dof rx ry rz
   end
   begin
      id 13
      name LeftHand_dum1
      direction 0.000000 0.000000 0.000000
      length 0.000000
      axis 0.0 0.0 -90.0 xyz
   end
   begin
      id 14
      name LeftHand_dum2
      direction 1.000000 0.000000 0.000000
      length 3.937000
      axis 0.0 0.0 -90.0 xyz
   end
   begin
      id 15
      name LeftHandThumb1
      direction 0.000000 0.000000 1.000000
      length 3.937000
      axis 0.0 0.0 -90.0 xyz
      dof rx rz ry
   end
   begin
      id 16
      name RightShoulder
      direction -1.000000 0.000000 0.000000
      length 6.996006
      axis 0.0 0.0 90.0 xyz
      dof rx ry rz
   end
   begin
      id 17
      name RightArm
      direction -1.000000 0.000000 0.000000
      length 10.209302
      axis 0.0 0.0 90.0 xyz
      dof rx ry rz
   end
   begin
      id 18
      name RightForeArm
      direction -1.000000 0.000000 0.000000
      length 8.563163
      axis 0.0 0.0 90.0 xyz
      dof ry rz rx
   end
   begin
      id 19
      name RightHand
      direction 0.000000 0.000000 0.000000
      length 0.000000
      axis 0.0 0.0 90.0 xyz
      dof rx ry rz
   end
   begin
      id 20
      name RightHand_dum1
      direction 0.000000 0.000000 0.000000
      length 0.000000
      axis 0.0 0.0 90.0 xyz
   end
   begin
      id 21
      name RightHand_dum2
      direction -1.000000 0.000000 0.000000
      length 3.937000
      axis 0.0 0.0 90.0 xyz
   end
   begin
      id 22
      name RightHandThumb1
      direction 0.000000 0.000000 1.000000
      length 3.937000
      axis 0.0 0.0 90.0 xyz
      dof rx rz ry
   end
   begin
      id 23
      name LeftUpLeg
      direction 0.000000 -1.000000 0.000000
      length 16.346831
      axis 0.0 0.0 0.0 xyz
      dof rx ry rz
   end
   begin
      id 24
      name LeftLeg
      direction 0.000000 -1.000000 0.000000
      length 13.959795
      axis 0.0 0.0 0.0 xyz
      dof rx ry rz
   end
   begin
      id 25
      name LeftFoot
      direction 0.000000 -0.258819 0.965926
      length 5.165550
      axis 15.0 0.0 0.0 xyz
      dof rx ry rz
   end
   begin
      id 26
      name LeftToeBase
      direction 0.000000 0.000000 1.000000
      length 2.952750
      axis 0.0 0.0 0.0 xyz
      dof rx ry rz
   end
   begin
      id 27
      name RightUpLeg
      direction 0.000000 -1.000000 0.000000
      length 16.346831
      axis 0.0 0.0 0.0 xyz
      dof rx ry rz
   end
   begin
      id 28
      name RightLeg
      direction 0.000000 -1.000000 0.000000
      length 13.959795
      axis 0.0 0.0 0.0 xyz
      dof rx ry rz
   end
   begin
      id 29
      name RightFoot
      direction 0.000000 -0.258819 0.965926
      length 5.165550
      axis 15.0 0.0 0.0 xyz
      dof rx ry rz
   end
   begin
      id 30
      name RightToeBase
      direction 0.000000 0.000000 1.000000
      length 2.952750
      axis 0.0 0.0 0.0 xyz
      dof rx ry rz
   end
:hierarchy
   begin
      root Spine_dum LeftUpLeg_dum RightUpLeg_dum
      Spine_dum Spine
      LeftUpLeg_dum LeftUpLeg
      RightUpLeg_dum RightUpLeg
      Spine Spine_dum1 Spine_dum2 Spine_dum3
      Spine_dum1 Head
      Spine_dum2 LeftShoulder
      Spine_dum3 RightShoulder
      LeftShoulder LeftArm
      LeftArm LeftForeArm
      LeftForeArm LeftHand
      LeftHand LeftHand_dum1 LeftHand_dum2
      LeftHand_dum1 LeftHandThumb1
      RightShoulder RightArm
      RightArm RightForeArm
      RightForeArm RightHand
      RightHand RightHand_dum1 RightHand_dum2
      RightHand_dum1 RightHandThumb1
      LeftUpLeg LeftLeg
      LeftLeg LeftFoot
      LeftFoot LeftToeBase
      RightUpLeg RightLeg
      RightLeg RightFoot
      RightFoot RightToeBase
   end

# File created by Blade
# Date/Time:  Tue Jan 27 18:35:03 2015
# Frame Rate: 120.000 fps
#------------------------------------------------------
:FULLY-SPECIFIED
:DEGREES
374
root -3.172399 31.500778 -2.100947 -6.526764 4.977442 -14.351749
Spine 14.442412 -5.781437 2.231742
Head -1.246234 5.106482 14.720225
LeftShoulder -15.757275 13.874853 17.253865
LeftArm 24.118084 -36.497581 -72.588050
LeftForeArm 129.003635 -0.000000 133.563761
LeftHand 6.348699 -0.000000 -6.739061
LeftHandThumb1 -26.253704 0.000000 33.147579
RightShoulder -12.007943 -3.242906 -8.828824
RightArm 12.763382 -35.255425 72.931502
RightForeArm -26.089542 -0.000000 30.178271
RightHand -14.460747 -0.000000 11.060136
RightHandThumb1 -24.326973 -0.000000 -32.862282
LeftUpLeg -7.871294 5.732111 6.428731
LeftLeg 34.496232 -0.000000 -0.000000
LeftFoot -32.925638 19.679236 -19.460518
LeftToeBase 8.911621 -0.000000 -0.000000
RightUpLeg -105.767625 -7.937247 15.031134
RightLeg 96.538193 -0.000000 -0.000000
RightFoot -7.138283 -13.371408 14.894567
RightToeBase 2.707666 -0.000000 -0.000000
375
root -3.167394 31.499283 -2.101369 -6.514031 5.008159 -14.373634
Spine 14.435265 -5.800893 2.278258
Head -1.099005 5.057017 14.695311
LeftShoulder -15.763489 13.875317 17.230537
LeftArm 24.194966 -36.486391 -72.651480
LeftForeArm 128.987141 -0.000000 133.481021
LeftHand 6.322410 -0.000000 -6.798203
LeftHandThumb1 -26.253704 0.000000 33.147579
RightShoulder -12.003817 -3.241956 -8.825242
RightArm 12.823064 -35.334218 72.874023
RightForeArm -26.040671 -0.000000 30.023620
RightHand -14.476587 0.000000 10.971786
RightHandThumb1 -24.326973 -0.000000 -32.862282
LeftUpLeg -7.915574 5.697625 6.434208
LeftLeg 34.541378 -0.000000 -0.000000
LeftFoot -32.923057 19.682077 -19.454322
LeftToeBase 8.885346 -0.000000 -0.000000
RightUpLeg -105.725306 -7.950821 14.998370
RightLeg 96.467816 -0.000000 -0.000000
RightFoot -7.162035 -13.402865 15.032810
RightToeBase 2.681570 -0.000000 -0.000000
376
root -3.163015 31.498627 -2.098308 -6.525052 5.037536 -14.393260
Spine 14.439191 -5.815952 2.307531
Head -0.889832 5.049188 14.708318
LeftShoulder -15.753684 13.866634 17.242147
LeftArm 24.222988 -36.469088 -72.713077
LeftForeArm 129.040392 -0.000000 133.406519
LeftHand 6.348040 -0.000000 -6.786376
LeftHandThumb1 -26.253704 0.000000 33.147579
RightShoulder -11.996660 -3.239204 -8.803582
RightArm 12.835236 -35.379010 72.841018
RightForeArm -26.060106 -0.000000 29.914273
RightHand -14.507797 -0.000000 10.939684
RightHandThumb1 -24.326973 -0.000000 -32.862282
LeftUpLeg -7.921019 5.655747 6.446809
LeftLeg 34.572185 -0.000000 -0.000000
LeftFoot -32.918103 19.678873 -19.420746
LeftToeBase 8.884994 -0.000000 -0.000000
RightUpLeg -105.663755 -7.985967 14.996953
RightLeg 96.416338 -0.000000 -0.000000
RightFoot -7.177697 -13.413741 15.102511
RightToeBase 2.676204 -0.000000 -0.000000
377
root -3.156640 31.498428 -2.096556 -6.522015 5.053758 -14.410414
Spine 14.424113 -5.806624 2.360902
Head -0.693097 5.000538 14.673113
LeftShoulder -15.747208 13.869437 17.219389
LeftArm 24.285373 -36.439480 -72.775879
LeftForeArm 129.082779 -0.000000 133.311112
LeftHand 6.354639 -0.000000 -6.744741
LeftHandThumb1 -26.253704 0.000000 33.147579
RightShoulder -12.008491 -3.236375 -8.805678
RightArm 12.834727 -35.401287 72.838722
RightForeArm -26.120540 0.000000 29.802219
RightHand -14.568643 -0.000000 10.879914
RightHandThumb1 -24.326973 -0.000000 -32.862282
LeftUpLeg -7.936371 5.635042 6.454318
LeftLeg 34.600823 -0.000000 -0.000000
LeftFoot -32.931268 19.636013 -19.443901
LeftToeBase 8.879645 -0.000000 -0.000000
RightUpLeg -105.604335 -7.993810 14.984615
RightLeg 96.351902 -0.000000 -0.000000
RightFoot -7.181918 -13.435062 15.173785
RightToeBase 2.980542 -0.000000 -0.000000
378
root -3.151403 31.499358 -2.096028 -6.511453 5.073097 -14.423168
Spine 14.396671 -5.790145 2.402333
Head -0.458432 4.936131 14.678917
LeftShoulder -15.715888 13.850560 17.218205
LeftArm 24.302905 -36.399011 -72.809583
LeftForeArm 129.167304 -0.000000 133.237430
LeftHand 6.355019 -0.000000 -6.740443
LeftHandThumb1 -26.253704 0.000000 33.147579
RightShoulder -12.018623 -3.265983 -8.794887
RightArm 12.875399 -35.430786 72.805108
RightForeArm -26.106852 -0.000000 29.680951
RightHand -14.602605 -0.000000 10.887096
RightHandThumb1 -24.326973 -0.000000 -32.862282
LeftUpLeg -7.961089 5.632122 6.463351
LeftLeg 34.622988 -0.000000 -0.000000
LeftFoot -32.888891 19.607184 -19.403919
LeftToeBase 8.755206 -0.000000 -0.000000
RightUpLeg -105.541936 -7.986245 14.980698
RightLeg 96.265420 -0.000000 -0.000000
RightFoot -7.132333 -13.508272 15.118340
RightToeBase 3.044174 -0.000000 -0.000000
379
root -3.145619 31.501382 -2.093581 -6.506552 5.090528 -14.434909
Spine 14.365024 -5.776934 2.443205
Head -0.192455 4.828888 14.671323
LeftShoulder -15.696706 13.858492 17.206441
LeftArm 24.340141 -36.333619 -72.839458
LeftForeArm 129.237747 -0.000000 133.167819
LeftHand 6.369567 -0.000000 -6.762414
LeftHandThumb1 -26.253704 0.000000 33.147579
RightShoulder -12.022431 -3.275384 -8.795109
RightArm 12.861095 -35.415168 72.822249
RightForeArm -26.102049 -0.000000 29.554273
RightHand -14.559604 -0.000000 10.983309
RightHandThumb1 -24.326973 -0.000000 -32.862282
LeftUpLeg -7.966320 5.640670 6.473447
LeftLeg 34.626786 -0.000000 -0.000000
LeftFoot -32.842200 19.561284 -19.376334
LeftToeBase 8.679504 -0.000000 -0.000000
RightUpLeg -105.473727 -7.985867 15.002516
RightLeg 96.190139 -0.000000 -0.000000
RightFoot -7.115323 -13.600511 15.141308
RightToeBase 3.076029 -0.000000 -0.000000
